<svg width="61" height="61" viewBox="0 0 61 61" fill="none" xmlns="http://www.w3.org/2000/svg">
<circle cx="30.5" cy="30.5" r="30.5" fill="#C4C4C4" fill-opacity="0.25"/>
<path d="M21.5993 19.6786C19.5764 19.6786 17.9366 21.3095 17.9366 23.3214C17.9366 25.3333 19.5764 26.9643 21.5993 26.9643C23.6221 26.9643 25.262 25.3333 25.262 23.3214C25.262 21.3095 23.6214 19.6786 21.5993 19.6786ZM44.1172 13H14.8157C12.1869 13 10 15.1743 10 17.8571V42.1429C10 44.8257 12.1862 47 14.8149 47H44.1164C46.8138 47 49 44.8257 49 42.1429V17.8571C49.0008 15.1743 46.8795 13 44.1172 13ZM45.3381 41.6344L34.8994 27.5259C34.7086 27.1768 34.2737 26.9643 33.8082 26.9643C33.3418 26.9643 32.9063 27.1744 32.6476 27.5243L24.5134 38.4605L21.6832 34.9618C21.4206 34.6371 21.0015 34.445 20.5562 34.445C20.1104 34.445 19.6916 34.637 19.4284 34.9618L13.6657 42.0813C13.6657 42.079 13.6657 42.0836 13.6657 42.0813L13.6627 17.8571C13.6627 17.1876 14.2104 16.6429 14.8836 16.6429H44.1851C44.8583 16.6429 45.406 17.1876 45.406 17.8571V41.6344H45.3381Z" fill="#C4C4C4"/>
</svg>
